<?xml version="1.0" encoding="UTF-8" standalone="no"?>
<!-- Created with Inkscape (http://www.inkscape.org/) -->

<svg
   width="31.898001mm"
   height="28.57498mm"
   viewBox="0 0 31.898001 28.57498"
   version="1.1"
   id="svg1"
   xml:space="preserve"
   inkscape:version="1.3.2 (091e20e, 2023-11-25)"
   sodipodi:docname="icon.svg"
   xmlns:inkscape="http://www.inkscape.org/namespaces/inkscape"
   xmlns:sodipodi="http://sodipodi.sourceforge.net/DTD/sodipodi-0.dtd"
   xmlns="http://www.w3.org/2000/svg"
   xmlns:svg="http://www.w3.org/2000/svg"><sodipodi:namedview
     id="namedview1"
     pagecolor="#ffffff"
     bordercolor="#000000"
     borderopacity="0.25"
     inkscape:showpageshadow="2"
     inkscape:pageopacity="0.0"
     inkscape:pagecheckerboard="0"
     inkscape:deskcolor="#d1d1d1"
     inkscape:document-units="mm"
     inkscape:zoom="1.475387"
     inkscape:cx="60.323155"
     inkscape:cy="51.511907"
     inkscape:window-width="1344"
     inkscape:window-height="449"
     inkscape:window-x="0"
     inkscape:window-y="38"
     inkscape:window-maximized="0"
     inkscape:current-layer="layer1" /><defs
     id="defs1" /><g
     inkscape:label="Ebene 1"
     inkscape:groupmode="layer"
     id="layer1"
     transform="translate(1.6771876e-4)"><path
       style="fill:#000000;fill-opacity:1;fill-rule:nonzero;stroke:none;stroke-width:2.11666"
       d="M 30.23906,12.782679 V 25.39996 c 0,0.87648 -0.314401,1.6206 -0.934265,2.2407 -0.620163,0.6201 -1.372567,0.93432 -2.240711,0.93432 H 4.8389646 c -0.8764242,0 -1.6205483,-0.3144 -2.2407115,-0.93432 -0.6283832,-0.6201 -0.9343249,-1.36422 -0.9343249,-2.2407 V 12.782679 C 1.052105,12.220479 0.58080257,11.509359 0.25008083,10.632939 -0.08052091,9.7647394 -0.08052091,8.8139194 0.23208073,7.7803594 L 1.9023095,2.3812194 C 2.1087105,1.695 2.4891126,1.12446 3.0267754,0.678 3.5721782,0.2232 4.2008616,0 4.911925,0 h 22.068039 c 0.719343,0 1.339446,0.2148 1.868589,0.65322 0.529202,0.438 0.909545,1.01694 1.149306,1.7279994 l 1.670168,5.39914 c 0.314403,1.03356 0.306002,1.96788 -0.02399,2.8194596 -0.330602,0.84336 -0.802025,1.57098 -1.405628,2.18286 z m -10.7983,-1.67022 c 0.719346,0 1.256768,-0.2478 1.62883,-0.73584 0.372002,-0.4877996 0.512402,-1.0335596 0.438002,-1.6453796 l -0.876485,-5.55622 h -3.092296 v 5.87038 c 0,0.5622 0.181801,1.0418396 0.553802,1.4552396 0.372002,0.405 0.818524,0.61182 1.347727,0.61182 z m -7.143817,0 c 0.611883,0 1.107965,-0.2064 1.488309,-0.61182 0.388801,-0.4134 0.579002,-0.8929796 0.579002,-1.4552396 v -5.87038 h -3.100577 l -0.868204,5.55622 c -0.1074,0.63666 0.036,1.19064 0.413402,1.6701596 0.388803,0.4716 0.884704,0.71106 1.488308,0.71106 z m -7.0610762,0 c 0.4710024,0 0.8929246,-0.1734 1.2484866,-0.5124 0.3558018,-0.3474 0.5790029,-0.7855196 0.6532233,-1.3146596 l 0.8764247,-6.1102 H 4.913365 l -1.5874881,5.31646 c -0.1572008,0.5292 -0.066,1.09962 0.2646014,1.7114996 0.3306018,0.6036 0.8764246,0.90948 1.6453885,0.90948 z m 21.4313142,0 c 0.768964,0 1.322948,-0.306 1.661949,-0.90948 0.347402,-0.6118796 0.430202,-1.1823596 0.240002,-1.7114996 l -1.661949,-5.31646 h -3.017896 l 0.868144,6.1102 c 0.0828,0.5292 0.297602,0.9673796 0.661504,1.3145996 0.355202,0.339 0.768965,0.5124 1.248486,0.5124 z M 4.8389646,25.39996 H 27.064084 V 14.204799 c -0.132001,0.06 -0.223201,0.0828 -0.256202,0.0828 h -0.140401 c -0.719344,0 -1.347727,-0.1158 -1.88515,-0.3558 -0.546002,-0.24 -1.083124,-0.6201 -1.612328,-1.14924 -0.471603,0.4716 -1.017005,0.84336 -1.620531,1.1079 -0.611883,0.2646 -1.256826,0.3966 -1.95133,0.3966 -0.711064,0 -1.380788,-0.1326 -2.000951,-0.3966 -0.620103,-0.2646 -1.174087,-0.6366 -1.645389,-1.1079 -0.454802,0.4716 -0.975605,0.84336 -1.570928,1.1079 -0.595203,0.2646 -1.231986,0.3966 -1.92655,0.3966 -0.760685,0 -1.455188,-0.1326 -2.083571,-0.3966 -0.6201026,-0.2646 -1.1658653,-0.6366 -1.6453879,-1.1079 -0.5538031,0.5538 -1.0996858,0.94254 -1.6453887,1.1658 -0.5454029,0.2232 -1.1575862,0.339 -1.8438098,0.339 H 5.0543658 c -0.066,0 -0.1404009,-0.024 -0.2148011,-0.0828 z m 22.2251194,0 H 4.8389646 Z m 0,0"
       id="path1-7-5" /><path
       style="fill:#000000;fill-opacity:1;fill-rule:nonzero;stroke:none;stroke-width:0.352778"
       d="m 9.9758432,16.682533 v 2.10288 c 0,0.14608 -0.0524,0.2701 -0.1557095,0.37345 -0.10336,0.10335 -0.228761,0.15572 -0.373451,0.15572 H 5.7425148 c -0.1460697,0 -0.2700897,-0.0524 -0.3734497,-0.15572 -0.10473,-0.10335 -0.15572,-0.22737 -0.15572,-0.37345 v -2.10288 c -0.1019697,-0.0937 -0.1805197,-0.21222 -0.2356397,-0.35829 -0.0551,-0.1447 -0.0551,-0.30317 -0.003,-0.47543 l 0.2783697,-0.89986 c 0.0344,-0.11437 0.0978,-0.20946 0.18741,-0.28387 0.0909,-0.0758 0.19568,-0.113 0.3141897,-0.113 h 3.6779879 c 0.11989,0 0.223241,0.0358 0.311431,0.10887 0.0882,0.073 0.15159,0.16949 0.1915497,0.288 l 0.2783596,0.89986 c 0.0524,0.17226 0.051,0.32798 -0.004,0.46991 -0.0551,0.14056 -0.13367,0.26183 -0.2342698,0.36381 z m -1.7997096,-0.27837 c 0.11989,0 0.2094597,-0.0413 0.2714697,-0.12264 0.062,-0.0813 0.0854,-0.17226 0.073,-0.27423 l -0.14608,-0.92604 H 7.8591436 v 0.9784 c 0,0.0937 0.0303,0.17364 0.0923,0.24254 0.062,0.0675 0.13642,0.10197 0.22462,0.10197 z m -1.1906294,0 c 0.10198,0 0.18466,-0.0344 0.24805,-0.10197 0.0648,-0.0689 0.0965,-0.14883 0.0965,-0.24254 v -0.9784 h -0.51676 l -0.1446997,0.92604 c -0.0179,0.10611 0.006,0.19844 0.0689,0.27836 0.0648,0.0786 0.14745,0.11851 0.24805,0.11851 z m -1.1768394,0 c 0.0785,0 0.14882,-0.0289 0.20808,-0.0854 0.0593,-0.0579 0.0965,-0.13092 0.10887,-0.21911 l 0.1460697,-1.01837 H 5.7549148 l -0.2645797,0.88608 c -0.0262,0.0882 -0.011,0.18327 0.0441,0.28525 0.0551,0.1006 0.1460697,0.15158 0.2742297,0.15158 z m 3.5718679,0 c 0.12816,0 0.22049,-0.051 0.276991,-0.15158 0.0579,-0.10198 0.0717,-0.19706 0.04,-0.28525 l -0.276991,-0.88608 H 8.917553 l 0.14469,1.01837 c 0.0138,0.0882 0.0496,0.16123 0.11025,0.2191 0.0592,0.0565 0.12816,0.0854 0.2080797,0.0854 z m -3.6380179,2.38125 h 3.7041679 v -1.86586 c -0.022,0.01 -0.0372,0.0138 -0.0427,0.0138 h -0.0234 c -0.1198897,0 -0.2246197,-0.0193 -0.3141897,-0.0593 -0.091,-0.04 -0.18052,-0.10335 -0.2687197,-0.19154 -0.0786,0.0786 -0.1695,0.14056 -0.27009,0.18465 -0.10198,0.0441 -0.2094697,0.0661 -0.3252197,0.0661 -0.11851,0 -0.23013,-0.0221 -0.33349,-0.0661 -0.1033497,-0.0441 -0.1956797,-0.1061 -0.2742297,-0.18465 -0.0758,0.0786 -0.1626,0.14056 -0.26182,0.18465 -0.0992,0.0441 -0.2053297,0.0661 -0.3210897,0.0661 -0.12678,0 -0.24253,-0.0221 -0.3472597,-0.0661 -0.10335,-0.0441 -0.19431,-0.1061 -0.27423,-0.18465 -0.0923,0.0923 -0.18328,0.15709 -0.2742297,0.1943 -0.0909,0.0372 -0.19293,0.0565 -0.3073,0.0565 h -0.0303 c -0.011,0 -0.0234,-0.004 -0.0358,-0.0138 z m 3.7041679,0 H 5.7425148 Z m 0,0"
       id="path1" /><path
       style="fill:#000000;fill-opacity:1;fill-rule:nonzero;stroke:none;stroke-width:0.352778"
       d="m 9.9758432,22.734123 v 2.102884 c 0,0.14608 -0.0524,0.2701 -0.1557095,0.37345 -0.10336,0.10335 -0.228761,0.15572 -0.373451,0.15572 H 5.7425148 c -0.1460697,0 -0.2700897,-0.0524 -0.3734497,-0.15572 -0.10473,-0.10335 -0.15572,-0.22737 -0.15572,-0.37345 v -2.102884 c -0.1019697,-0.0937 -0.1805197,-0.212217 -0.2356397,-0.358287 -0.0551,-0.1447 -0.0551,-0.303169 -0.003,-0.475429 l 0.2783697,-0.89986 c 0.0344,-0.11437 0.0978,-0.20946 0.18741,-0.28387 0.0909,-0.0758 0.19568,-0.113 0.3141897,-0.113 h 3.6779879 c 0.11989,0 0.223241,0.0358 0.311431,0.10887 0.0882,0.073 0.15159,0.16949 0.1915497,0.288 l 0.2783596,0.89986 c 0.0524,0.17226 0.051,0.327979 -0.004,0.469909 -0.0551,0.14056 -0.13367,0.26183 -0.2342698,0.363807 z M 8.1761336,22.455757 c 0.11989,0 0.2094597,-0.0413 0.2714697,-0.122641 0.062,-0.0813 0.0854,-0.17226 0.073,-0.274229 l -0.14608,-0.92604 H 7.8591436 v 0.9784 c 0,0.0937 0.0303,0.173639 0.0923,0.242539 0.062,0.0675 0.13642,0.10197 0.22462,0.10197 z m -1.1906294,0 c 0.10198,0 0.18466,-0.0344 0.24805,-0.101971 0.0648,-0.0689 0.0965,-0.14883 0.0965,-0.242539 v -0.9784 h -0.51676 l -0.1446997,0.92604 c -0.0179,0.106109 0.006,0.198439 0.0689,0.278359 0.0648,0.0786 0.14745,0.118511 0.24805,0.118511 z m -1.1768394,0 c 0.0785,0 0.14882,-0.0289 0.20808,-0.0854 0.0593,-0.0579 0.0965,-0.130921 0.10887,-0.21911 l 0.1460697,-1.01837 H 5.7549148 l -0.2645797,0.88608 c -0.0262,0.0882 -0.011,0.183269 0.0441,0.28525 0.0551,0.1006 0.1460697,0.151579 0.2742297,0.151579 z m 3.5718679,0 c 0.12816,0 0.22049,-0.051 0.276991,-0.151581 0.0579,-0.101979 0.0717,-0.197059 0.04,-0.285249 l -0.276991,-0.88608 H 8.917553 l 0.14469,1.018369 c 0.0138,0.0882 0.0496,0.16123 0.11025,0.2191 0.0592,0.0565 0.12816,0.0854 0.2080797,0.0854 z m -3.6380179,2.38125 h 3.7041679 v -1.865864 c -0.022,0.01 -0.0372,0.0138 -0.0427,0.0138 h -0.0234 c -0.1198897,0 -0.2246197,-0.0193 -0.3141897,-0.0593 -0.091,-0.04 -0.18052,-0.10335 -0.2687197,-0.19154 -0.0786,0.0786 -0.1695,0.14056 -0.27009,0.18465 -0.10198,0.0441 -0.2094697,0.0661 -0.3252197,0.0661 -0.11851,0 -0.23013,-0.0221 -0.33349,-0.0661 -0.1033497,-0.0441 -0.1956797,-0.1061 -0.2742297,-0.18465 -0.0758,0.0786 -0.1626,0.14056 -0.26182,0.18465 -0.0992,0.0441 -0.2053297,0.0661 -0.3210897,0.0661 -0.12678,0 -0.24253,-0.0221 -0.3472597,-0.0661 -0.10335,-0.0441 -0.19431,-0.1061 -0.27423,-0.18465 -0.0923,0.0923 -0.18328,0.15709 -0.2742297,0.1943 -0.0909,0.0372 -0.19293,0.0565 -0.3073,0.0565 h -0.0303 c -0.011,0 -0.0234,-0.004 -0.0358,-0.0138 z m 3.7041679,0 H 5.7425148 Z m 0,0"
       id="path1-02" /><path
       style="fill:#000000;fill-opacity:1;fill-rule:nonzero;stroke:none;stroke-width:0.352778"
       d="m 15.614511,16.673865 v 2.10288 c 0,0.14608 -0.0524,0.2701 -0.15571,0.37345 -0.10336,0.10335 -0.228761,0.15572 -0.373451,0.15572 h -3.704168 c -0.14607,0 -0.27009,-0.0524 -0.37345,-0.15572 -0.10473,-0.10335 -0.15572,-0.22737 -0.15572,-0.37345 v -2.10288 c -0.101969,-0.0937 -0.180519,-0.21222 -0.235639,-0.35829 -0.0551,-0.1447 -0.0551,-0.30317 -0.003,-0.47543 l 0.278369,-0.89986 c 0.0344,-0.11437 0.0978,-0.20946 0.18741,-0.28387 0.0909,-0.0758 0.19568,-0.113 0.31419,-0.113 h 3.677988 c 0.11989,0 0.223241,0.0358 0.311431,0.10887 0.0882,0.073 0.15159,0.16949 0.191549,0.288 l 0.27836,0.89986 c 0.0524,0.17226 0.051,0.32798 -0.004,0.46991 -0.0551,0.14056 -0.13367,0.26183 -0.23427,0.36381 z m -1.79971,-0.27837 c 0.11989,0 0.209459,-0.0413 0.271469,-0.12264 0.062,-0.0813 0.0854,-0.17226 0.073,-0.27423 l -0.14608,-0.92604 h -0.515379 v 0.9784 c 0,0.0937 0.0303,0.17364 0.0923,0.24254 0.062,0.0675 0.13642,0.10197 0.22462,0.10197 z m -1.19063,0 c 0.10198,0 0.18466,-0.0344 0.24805,-0.10197 0.0648,-0.0689 0.0965,-0.14883 0.0965,-0.24254 v -0.9784 h -0.51676 l -0.144699,0.92604 c -0.0179,0.10611 0.006,0.19844 0.0689,0.27836 0.0648,0.0786 0.14745,0.11851 0.24805,0.11851 z m -1.176839,0 c 0.0785,0 0.14882,-0.0289 0.20808,-0.0854 0.0593,-0.0579 0.0965,-0.13092 0.10887,-0.21911 l 0.14607,-1.01837 h -0.51677 l -0.26458,0.88608 c -0.0262,0.0882 -0.011,0.18327 0.0441,0.28525 0.0551,0.1006 0.14607,0.15158 0.27423,0.15158 z m 3.571868,0 c 0.12816,0 0.22049,-0.051 0.276991,-0.15158 0.0579,-0.10198 0.0717,-0.19706 0.04,-0.28525 L 15.0592,15.072585 h -0.50298 l 0.14469,1.01837 c 0.0138,0.0882 0.0496,0.16123 0.11025,0.2191 0.0592,0.0565 0.12816,0.0854 0.20808,0.0854 z m -3.638018,2.38125 h 3.704168 v -1.86586 c -0.022,0.01 -0.0372,0.0138 -0.0427,0.0138 h -0.0234 c -0.11989,0 -0.22462,-0.0193 -0.31419,-0.0593 -0.091,-0.04 -0.18052,-0.10335 -0.26872,-0.19154 -0.0786,0.0786 -0.1695,0.14056 -0.27009,0.18465 -0.10198,0.0441 -0.209469,0.0661 -0.325219,0.0661 -0.11851,0 -0.23013,-0.0221 -0.33349,-0.0661 -0.10335,-0.0441 -0.19568,-0.1061 -0.27423,-0.18465 -0.0758,0.0786 -0.1626,0.14056 -0.26182,0.18465 -0.0992,0.0441 -0.20533,0.0661 -0.32109,0.0661 -0.12678,0 -0.24253,-0.0221 -0.347259,-0.0661 -0.10335,-0.0441 -0.19431,-0.1061 -0.27423,-0.18465 -0.0923,0.0923 -0.18328,0.15709 -0.27423,0.1943 -0.0909,0.0372 -0.19293,0.0565 -0.3073,0.0565 h -0.0303 c -0.011,0 -0.0234,-0.004 -0.0358,-0.0138 z m 3.704168,0 h -3.704168 z m 0,0"
       id="path1-4" /><path
       style="fill:#000000;fill-opacity:1;fill-rule:nonzero;stroke:none;stroke-width:0.352778"
       d="m 15.614511,22.725455 v 2.102884 c 0,0.14608 -0.0524,0.2701 -0.15571,0.37345 -0.10336,0.10335 -0.228761,0.15572 -0.373451,0.15572 h -3.704168 c -0.14607,0 -0.27009,-0.0524 -0.37345,-0.15572 -0.10473,-0.10335 -0.15572,-0.22737 -0.15572,-0.37345 v -2.102884 c -0.101969,-0.0937 -0.180519,-0.212217 -0.235639,-0.358287 -0.0551,-0.1447 -0.0551,-0.303169 -0.003,-0.475429 l 0.278369,-0.89986 c 0.0344,-0.11437 0.0978,-0.20946 0.18741,-0.28387 0.0909,-0.0758 0.19568,-0.113 0.31419,-0.113 h 3.677988 c 0.11989,0 0.223241,0.0358 0.311431,0.10887 0.0882,0.073 0.15159,0.16949 0.191549,0.288 l 0.27836,0.89986 c 0.0524,0.17226 0.051,0.327979 -0.004,0.469909 -0.0551,0.14056 -0.13367,0.26183 -0.23427,0.363807 z m -1.79971,-0.278366 c 0.11989,0 0.209459,-0.0413 0.271469,-0.122641 0.062,-0.0813 0.0854,-0.17226 0.073,-0.274229 l -0.14608,-0.92604 h -0.515379 v 0.9784 c 0,0.0937 0.0303,0.173639 0.0923,0.242539 0.062,0.0675 0.13642,0.10197 0.22462,0.10197 z m -1.19063,0 c 0.10198,0 0.18466,-0.0344 0.24805,-0.101971 0.0648,-0.0689 0.0965,-0.14883 0.0965,-0.242539 v -0.9784 h -0.51676 l -0.144699,0.92604 c -0.0179,0.106109 0.006,0.198439 0.0689,0.278359 0.0648,0.0786 0.14745,0.118511 0.24805,0.118511 z m -1.176839,0 c 0.0785,0 0.14882,-0.0289 0.20808,-0.0854 0.0593,-0.0579 0.0965,-0.130921 0.10887,-0.21911 l 0.14607,-1.01837 h -0.51677 l -0.26458,0.88608 c -0.0262,0.0882 -0.011,0.183269 0.0441,0.28525 0.0551,0.1006 0.14607,0.151579 0.27423,0.151579 z m 3.571868,0 c 0.12816,0 0.22049,-0.051 0.276991,-0.151581 0.0579,-0.101979 0.0717,-0.197059 0.04,-0.285249 L 15.0592,21.124179 h -0.50298 l 0.14469,1.018369 c 0.0138,0.0882 0.0496,0.16123 0.11025,0.2191 0.0592,0.0565 0.12816,0.0854 0.20808,0.0854 z m -3.638018,2.38125 h 3.704168 v -1.865864 c -0.022,0.01 -0.0372,0.0138 -0.0427,0.0138 h -0.0234 c -0.11989,0 -0.22462,-0.0193 -0.31419,-0.0593 -0.091,-0.04 -0.18052,-0.10335 -0.26872,-0.19154 -0.0786,0.0786 -0.1695,0.14056 -0.27009,0.18465 -0.10198,0.0441 -0.209469,0.0661 -0.325219,0.0661 -0.11851,0 -0.23013,-0.0221 -0.33349,-0.0661 -0.10335,-0.0441 -0.19568,-0.1061 -0.27423,-0.18465 -0.0758,0.0786 -0.1626,0.14056 -0.26182,0.18465 -0.0992,0.0441 -0.20533,0.0661 -0.32109,0.0661 -0.12678,0 -0.24253,-0.0221 -0.347259,-0.0661 -0.10335,-0.0441 -0.19431,-0.1061 -0.27423,-0.18465 -0.0923,0.0923 -0.18328,0.15709 -0.27423,0.1943 -0.0909,0.0372 -0.19293,0.0565 -0.3073,0.0565 h -0.0303 c -0.011,0 -0.0234,-0.004 -0.0358,-0.0138 z m 3.704168,0 h -3.704168 z m 0,0"
       id="path1-02-1" /><path
       style="fill:#000000;fill-opacity:1;fill-rule:nonzero;stroke:none;stroke-width:0.352778"
       d="m 21.198964,16.662997 v 2.10288 c 0,0.14608 -0.0524,0.2701 -0.15571,0.37345 -0.10336,0.10335 -0.228761,0.15572 -0.373451,0.15572 h -3.704168 c -0.146069,0 -0.270089,-0.0524 -0.373449,-0.15572 -0.10473,-0.10335 -0.15572,-0.22737 -0.15572,-0.37345 v -2.10288 c -0.10197,-0.0937 -0.18052,-0.21222 -0.23564,-0.35829 -0.0551,-0.1447 -0.0551,-0.30317 -0.003,-0.47543 l 0.27837,-0.89986 c 0.0344,-0.11437 0.0978,-0.20946 0.18741,-0.28387 0.0909,-0.0758 0.19568,-0.113 0.314189,-0.113 h 3.677988 c 0.11989,0 0.223241,0.0358 0.311431,0.10887 0.0882,0.073 0.15159,0.16949 0.19155,0.288 l 0.27836,0.89986 c 0.0524,0.17226 0.051,0.32798 -0.004,0.46991 -0.0551,0.14056 -0.13367,0.26183 -0.23427,0.36381 z m -1.79971,-0.27837 c 0.11989,0 0.20946,-0.0413 0.27147,-0.12264 0.062,-0.0813 0.0854,-0.17226 0.073,-0.27423 l -0.14608,-0.92604 h -0.51538 v 0.9784 c 0,0.0937 0.0303,0.17364 0.0923,0.24254 0.062,0.0675 0.13642,0.10197 0.22462,0.10197 z m -1.190629,0 c 0.10198,0 0.18466,-0.0344 0.24805,-0.10197 0.0648,-0.0689 0.0965,-0.14883 0.0965,-0.24254 v -0.9784 h -0.51676 l -0.1447,0.92604 c -0.0179,0.10611 0.006,0.19844 0.0689,0.27836 0.0648,0.0786 0.14745,0.11851 0.24805,0.11851 z m -1.17684,0 c 0.0785,0 0.14882,-0.0289 0.20808,-0.0854 0.0593,-0.0579 0.0965,-0.13092 0.10887,-0.21911 l 0.14607,-1.01837 h -0.51677 l -0.264579,0.88608 c -0.0262,0.0882 -0.011,0.18327 0.0441,0.28525 0.0551,0.1006 0.146069,0.15158 0.274229,0.15158 z m 3.571868,0 c 0.12816,0 0.22049,-0.051 0.276991,-0.15158 0.0579,-0.10198 0.0717,-0.19706 0.04,-0.28525 l -0.276991,-0.88608 h -0.502979 l 0.14469,1.01837 c 0.0138,0.0882 0.0496,0.16123 0.11025,0.2191 0.0592,0.0565 0.12816,0.0854 0.208079,0.0854 z m -3.638018,2.38125 h 3.704168 v -1.86586 c -0.022,0.01 -0.0372,0.0138 -0.0427,0.0138 h -0.0234 c -0.119889,0 -0.224619,-0.0193 -0.314189,-0.0593 -0.091,-0.04 -0.18052,-0.10335 -0.26872,-0.19154 -0.0786,0.0786 -0.1695,0.14056 -0.27009,0.18465 -0.10198,0.0441 -0.20947,0.0661 -0.32522,0.0661 -0.11851,0 -0.23013,-0.0221 -0.33349,-0.0661 -0.103349,-0.0441 -0.19568,-0.1061 -0.27423,-0.18465 -0.0758,0.0786 -0.162599,0.14056 -0.26182,0.18465 -0.0992,0.0441 -0.205329,0.0661 -0.321089,0.0661 -0.12678,0 -0.24253,-0.0221 -0.34726,-0.0661 -0.10335,-0.0441 -0.19431,-0.1061 -0.27423,-0.18465 -0.0923,0.0923 -0.18328,0.15709 -0.27423,0.1943 -0.0909,0.0372 -0.19293,0.0565 -0.3073,0.0565 h -0.0303 c -0.011,0 -0.0234,-0.004 -0.0358,-0.0138 z m 3.704168,0 h -3.704168 z m 0,0"
       id="path1-9" /><path
       style="fill:#000000;fill-opacity:1;fill-rule:nonzero;stroke:none;stroke-width:0.352778"
       d="m 21.198964,22.714587 v 2.102884 c 0,0.14608 -0.0524,0.2701 -0.15571,0.37345 -0.10336,0.10335 -0.228761,0.15572 -0.373451,0.15572 h -3.704168 c -0.146069,0 -0.270089,-0.0524 -0.373449,-0.15572 -0.10473,-0.10335 -0.15572,-0.22737 -0.15572,-0.37345 v -2.102884 c -0.10197,-0.0937 -0.18052,-0.212217 -0.23564,-0.358287 -0.0551,-0.1447 -0.0551,-0.303169 -0.003,-0.475429 l 0.27837,-0.89986 c 0.0344,-0.11437 0.0978,-0.20946 0.18741,-0.28387 0.0909,-0.0758 0.19568,-0.113 0.314189,-0.113 h 3.677988 c 0.11989,0 0.223241,0.0358 0.311431,0.10887 0.0882,0.073 0.15159,0.16949 0.19155,0.288 l 0.27836,0.89986 c 0.0524,0.17226 0.051,0.327979 -0.004,0.469909 -0.0551,0.14056 -0.13367,0.26183 -0.23427,0.363807 z m -1.79971,-0.278366 c 0.11989,0 0.20946,-0.0413 0.27147,-0.122641 0.062,-0.0813 0.0854,-0.17226 0.073,-0.274229 l -0.14608,-0.92604 h -0.51538 v 0.9784 c 0,0.0937 0.0303,0.173639 0.0923,0.242539 0.062,0.0675 0.13642,0.10197 0.22462,0.10197 z m -1.190629,0 c 0.10198,0 0.18466,-0.0344 0.24805,-0.101971 0.0648,-0.0689 0.0965,-0.14883 0.0965,-0.242539 v -0.9784 h -0.51676 l -0.1447,0.92604 c -0.0179,0.106109 0.006,0.198439 0.0689,0.278359 0.0648,0.0786 0.14745,0.118511 0.24805,0.118511 z m -1.17684,0 c 0.0785,0 0.14882,-0.0289 0.20808,-0.0854 0.0593,-0.0579 0.0965,-0.130921 0.10887,-0.21911 l 0.14607,-1.01837 h -0.51677 l -0.264579,0.88608 c -0.0262,0.0882 -0.011,0.183269 0.0441,0.28525 0.0551,0.1006 0.146069,0.151579 0.274229,0.151579 z m 3.571868,0 c 0.12816,0 0.22049,-0.051 0.276991,-0.151581 0.0579,-0.101979 0.0717,-0.197059 0.04,-0.285249 l -0.276991,-0.88608 h -0.502979 l 0.14469,1.018369 c 0.0138,0.0882 0.0496,0.16123 0.11025,0.2191 0.0592,0.0565 0.12816,0.0854 0.208079,0.0854 z m -3.638018,2.38125 h 3.704168 v -1.865864 c -0.022,0.01 -0.0372,0.0138 -0.0427,0.0138 h -0.0234 c -0.119889,0 -0.224619,-0.0193 -0.314189,-0.0593 -0.091,-0.04 -0.18052,-0.10335 -0.26872,-0.19154 -0.0786,0.0786 -0.1695,0.14056 -0.27009,0.18465 -0.10198,0.0441 -0.20947,0.0661 -0.32522,0.0661 -0.11851,0 -0.23013,-0.0221 -0.33349,-0.0661 -0.103349,-0.0441 -0.19568,-0.1061 -0.27423,-0.18465 -0.0758,0.0786 -0.162599,0.14056 -0.26182,0.18465 -0.0992,0.0441 -0.205329,0.0661 -0.321089,0.0661 -0.12678,0 -0.24253,-0.0221 -0.34726,-0.0661 -0.10335,-0.0441 -0.19431,-0.1061 -0.27423,-0.18465 -0.0923,0.0923 -0.18328,0.15709 -0.27423,0.1943 -0.0909,0.0372 -0.19293,0.0565 -0.3073,0.0565 h -0.0303 c -0.011,0 -0.0234,-0.004 -0.0358,-0.0138 z m 3.704168,0 h -3.704168 z m 0,0"
       id="path1-02-9" /><path
       style="fill:#000000;fill-opacity:1;fill-rule:nonzero;stroke:none;stroke-width:0.352778"
       d="m 26.599053,16.682533 v 2.10288 c 0,0.14608 -0.0524,0.2701 -0.15571,0.37345 -0.10336,0.10335 -0.228761,0.15572 -0.373451,0.15572 h -3.704168 c -0.146069,0 -0.270089,-0.0524 -0.373449,-0.15572 -0.10473,-0.10335 -0.15572,-0.22737 -0.15572,-0.37345 v -2.10288 c -0.10197,-0.0937 -0.18052,-0.21222 -0.23564,-0.35829 -0.0551,-0.1447 -0.0551,-0.30317 -0.003,-0.47543 l 0.27837,-0.89986 c 0.0344,-0.11437 0.0978,-0.20946 0.18741,-0.28387 0.0909,-0.0758 0.19568,-0.113 0.314189,-0.113 h 3.677988 c 0.11989,0 0.223241,0.0358 0.311431,0.10887 0.0882,0.073 0.15159,0.16949 0.19155,0.288 l 0.27836,0.89986 c 0.0524,0.17226 0.051,0.32798 -0.004,0.46991 -0.0551,0.14056 -0.13367,0.26183 -0.23427,0.36381 z m -1.79971,-0.27837 c 0.11989,0 0.20946,-0.0413 0.27147,-0.12264 0.062,-0.0813 0.0854,-0.17226 0.073,-0.27423 l -0.14608,-0.92604 h -0.51538 v 0.9784 c 0,0.0937 0.0303,0.17364 0.0923,0.24254 0.062,0.0675 0.13642,0.10197 0.22462,0.10197 z m -1.190629,0 c 0.10198,0 0.18466,-0.0344 0.24805,-0.10197 0.0648,-0.0689 0.0965,-0.14883 0.0965,-0.24254 v -0.9784 h -0.51676 l -0.1447,0.92604 c -0.0179,0.10611 0.006,0.19844 0.0689,0.27836 0.0648,0.0786 0.14745,0.11851 0.24805,0.11851 z m -1.17684,0 c 0.0785,0 0.14882,-0.0289 0.20808,-0.0854 0.0593,-0.0579 0.0965,-0.13092 0.10887,-0.21911 l 0.14607,-1.01837 h -0.51677 l -0.264579,0.88608 c -0.0262,0.0882 -0.011,0.18327 0.0441,0.28525 0.0551,0.1006 0.146069,0.15158 0.274229,0.15158 z m 3.571868,0 c 0.12816,0 0.22049,-0.051 0.276991,-0.15158 0.0579,-0.10198 0.0717,-0.19706 0.04,-0.28525 l -0.276991,-0.88608 h -0.502979 l 0.14469,1.01837 c 0.0138,0.0882 0.0496,0.16123 0.11025,0.2191 0.0592,0.0565 0.12816,0.0854 0.208079,0.0854 z m -3.638018,2.38125 h 3.704168 v -1.86586 c -0.022,0.01 -0.0372,0.0138 -0.0427,0.0138 h -0.0234 c -0.119889,0 -0.224619,-0.0193 -0.314189,-0.0593 -0.091,-0.04 -0.18052,-0.10335 -0.26872,-0.19154 -0.0786,0.0786 -0.1695,0.14056 -0.27009,0.18465 -0.10198,0.0441 -0.20947,0.0661 -0.32522,0.0661 -0.11851,0 -0.23013,-0.0221 -0.33349,-0.0661 -0.103349,-0.0441 -0.19568,-0.1061 -0.27423,-0.18465 -0.0758,0.0786 -0.162599,0.14056 -0.26182,0.18465 -0.0992,0.0441 -0.205329,0.0661 -0.321089,0.0661 -0.12678,0 -0.24253,-0.0221 -0.34726,-0.0661 -0.10335,-0.0441 -0.19431,-0.1061 -0.27423,-0.18465 -0.0923,0.0923 -0.18328,0.15709 -0.27423,0.1943 -0.0909,0.0372 -0.19293,0.0565 -0.3073,0.0565 h -0.0303 c -0.011,0 -0.0234,-0.004 -0.0358,-0.0138 z m 3.704168,0 h -3.704168 z m 0,0"
       id="path1-9-7" /><path
       style="fill:#000000;fill-opacity:1;fill-rule:nonzero;stroke:none;stroke-width:0.352778"
       d="m 26.599053,22.734123 v 2.102884 c 0,0.14608 -0.0524,0.2701 -0.15571,0.37345 -0.10336,0.10335 -0.228761,0.15572 -0.373451,0.15572 h -3.704168 c -0.146069,0 -0.270089,-0.0524 -0.373449,-0.15572 -0.10473,-0.10335 -0.15572,-0.22737 -0.15572,-0.37345 v -2.102884 c -0.10197,-0.0937 -0.18052,-0.212217 -0.23564,-0.358287 -0.0551,-0.1447 -0.0551,-0.303169 -0.003,-0.475429 l 0.27837,-0.89986 c 0.0344,-0.11437 0.0978,-0.20946 0.18741,-0.28387 0.0909,-0.0758 0.19568,-0.113 0.314189,-0.113 h 3.677988 c 0.11989,0 0.223241,0.0358 0.311431,0.10887 0.0882,0.073 0.15159,0.16949 0.19155,0.288 l 0.27836,0.89986 c 0.0524,0.17226 0.051,0.327979 -0.004,0.469909 -0.0551,0.14056 -0.13367,0.26183 -0.23427,0.363807 z m -1.79971,-0.278366 c 0.11989,0 0.20946,-0.0413 0.27147,-0.122641 0.062,-0.0813 0.0854,-0.17226 0.073,-0.274229 l -0.14608,-0.92604 h -0.51538 v 0.9784 c 0,0.0937 0.0303,0.173639 0.0923,0.242539 0.062,0.0675 0.13642,0.10197 0.22462,0.10197 z m -1.190629,0 c 0.10198,0 0.18466,-0.0344 0.24805,-0.101971 0.0648,-0.0689 0.0965,-0.14883 0.0965,-0.242539 v -0.9784 h -0.51676 l -0.1447,0.92604 c -0.0179,0.106109 0.006,0.198439 0.0689,0.278359 0.0648,0.0786 0.14745,0.118511 0.24805,0.118511 z m -1.17684,0 c 0.0785,0 0.14882,-0.0289 0.20808,-0.0854 0.0593,-0.0579 0.0965,-0.130921 0.10887,-0.21911 l 0.14607,-1.01837 h -0.51677 l -0.264579,0.88608 c -0.0262,0.0882 -0.011,0.183269 0.0441,0.28525 0.0551,0.1006 0.146069,0.151579 0.274229,0.151579 z m 3.571868,0 c 0.12816,0 0.22049,-0.051 0.276991,-0.151581 0.0579,-0.101979 0.0717,-0.197059 0.04,-0.285249 l -0.276991,-0.88608 h -0.502979 l 0.14469,1.018369 c 0.0138,0.0882 0.0496,0.16123 0.11025,0.2191 0.0592,0.0565 0.12816,0.0854 0.208079,0.0854 z m -3.638018,2.38125 h 3.704168 v -1.865864 c -0.022,0.01 -0.0372,0.0138 -0.0427,0.0138 h -0.0234 c -0.119889,0 -0.224619,-0.0193 -0.314189,-0.0593 -0.091,-0.04 -0.18052,-0.10335 -0.26872,-0.19154 -0.0786,0.0786 -0.1695,0.14056 -0.27009,0.18465 -0.10198,0.0441 -0.20947,0.0661 -0.32522,0.0661 -0.11851,0 -0.23013,-0.0221 -0.33349,-0.0661 -0.103349,-0.0441 -0.19568,-0.1061 -0.27423,-0.18465 -0.0758,0.0786 -0.162599,0.14056 -0.26182,0.18465 -0.0992,0.0441 -0.205329,0.0661 -0.321089,0.0661 -0.12678,0 -0.24253,-0.0221 -0.34726,-0.0661 -0.10335,-0.0441 -0.19431,-0.1061 -0.27423,-0.18465 -0.0923,0.0923 -0.18328,0.15709 -0.27423,0.1943 -0.0909,0.0372 -0.19293,0.0565 -0.3073,0.0565 h -0.0303 c -0.011,0 -0.0234,-0.004 -0.0358,-0.0138 z m 3.704168,0 h -3.704168 z m 0,0"
       id="path1-02-9-3" /></g></svg>
